<mxfile host="app.diagrams.net" modified="2023-12-05T19:34:09.273Z" agent="Mozilla/5.0 (Windows NT 10.0; Win64; x64) AppleWebKit/537.36 (KHTML, like Gecko) Chrome/119.0.0.0 Safari/537.36 Avast/119.0.0.0" etag="HVnqyXS_hy7PeLsEhV_W" version="22.1.5" type="github">
  <diagram id="6a731a19-8d31-9384-78a2-239565b7b9f0" name="Page-1">
    <mxGraphModel dx="709" dy="327" grid="1" gridSize="10" guides="1" tooltips="1" connect="1" arrows="1" fold="1" page="1" pageScale="1" pageWidth="1169" pageHeight="827" background="none" math="0" shadow="0">
      <root>
        <mxCell id="0" />
        <mxCell id="1" parent="0" />
        <mxCell id="3r1CRgV7TEUkl7Pi6vpK-1880" value="" style="rounded=1;whiteSpace=wrap;html=1;fillColor=#d5e8d4;strokeColor=#82b366;strokeWidth=4;gradientColor=#97d077;" parent="1" vertex="1">
          <mxGeometry x="1182.5" y="220" width="516" height="430" as="geometry" />
        </mxCell>
        <mxCell id="3r1CRgV7TEUkl7Pi6vpK-1844" value="" style="rounded=1;whiteSpace=wrap;html=1;fillColor=#b1ddf0;strokeColor=#10739e;strokeWidth=4;" parent="1" vertex="1">
          <mxGeometry x="9" y="40" width="1161" height="810" as="geometry" />
        </mxCell>
        <mxCell id="3r1CRgV7TEUkl7Pi6vpK-1843" value="" style="rounded=1;whiteSpace=wrap;html=1;fillColor=#bac8d3;strokeColor=#23445d;shadow=0;glass=0;strokeWidth=4;" parent="1" vertex="1">
          <mxGeometry x="23.5" y="874" width="1141" height="780" as="geometry" />
        </mxCell>
        <mxCell id="1755" value="Administrateur" style="rounded=1;whiteSpace=wrap;html=1;shadow=0;labelBackgroundColor=none;strokeColor=#006EAF;strokeWidth=3;fillColor=#1ba1e2;fontFamily=Helvetica;fontSize=14;fontColor=#ffffff;align=center;spacing=5;fontStyle=1;arcSize=7;perimeterSpacing=2;" parent="1" vertex="1">
          <mxGeometry x="770" y="1040" width="150" height="60" as="geometry" />
        </mxCell>
        <mxCell id="3r1CRgV7TEUkl7Pi6vpK-1779" value="Invité" style="rounded=1;whiteSpace=wrap;html=1;shadow=0;labelBackgroundColor=none;strokeColor=#006EAF;strokeWidth=3;fillColor=#1ba1e2;fontFamily=Helvetica;fontSize=14;fontColor=#ffffff;align=center;spacing=5;fontStyle=1;arcSize=7;perimeterSpacing=2;" parent="1" vertex="1">
          <mxGeometry x="49" y="960" width="150" height="60" as="geometry" />
        </mxCell>
        <mxCell id="3r1CRgV7TEUkl7Pi6vpK-1780" value="Administrateurs DHCP" style="rounded=1;whiteSpace=wrap;html=1;shadow=0;labelBackgroundColor=none;strokeColor=none;strokeWidth=3;fillColor=#33FF99;fontFamily=Helvetica;fontSize=14;fontColor=#000000;align=center;spacing=5;fontStyle=1;arcSize=7;perimeterSpacing=2;" parent="1" vertex="1">
          <mxGeometry x="219" y="1080" width="150" height="60" as="geometry" />
        </mxCell>
        <mxCell id="3r1CRgV7TEUkl7Pi6vpK-1781" value="DnsAdmins" style="rounded=1;whiteSpace=wrap;html=1;shadow=0;labelBackgroundColor=none;strokeColor=none;strokeWidth=3;fillColor=#33FF99;fontFamily=Helvetica;fontSize=14;fontColor=#000000;align=center;spacing=5;fontStyle=1;arcSize=7;perimeterSpacing=2;" parent="1" vertex="1">
          <mxGeometry x="49" y="1080" width="150" height="60" as="geometry" />
        </mxCell>
        <mxCell id="3r1CRgV7TEUkl7Pi6vpK-1782" value="Éditeurs de certificats" style="rounded=1;whiteSpace=wrap;html=1;shadow=0;labelBackgroundColor=none;strokeColor=none;strokeWidth=3;fillColor=#33FF99;fontFamily=Helvetica;fontSize=14;fontColor=#000000;align=center;spacing=5;fontStyle=1;arcSize=7;perimeterSpacing=2;" parent="1" vertex="1">
          <mxGeometry x="770" y="1450" width="150" height="60" as="geometry" />
        </mxCell>
        <mxCell id="3r1CRgV7TEUkl7Pi6vpK-1783" value="Groupe de réplication dont le mot de passe RODC est autorisé" style="rounded=1;whiteSpace=wrap;html=1;shadow=0;labelBackgroundColor=none;strokeColor=none;strokeWidth=3;fillColor=#33FF99;fontFamily=Helvetica;fontSize=14;fontColor=#000000;align=center;spacing=5;fontStyle=1;arcSize=7;perimeterSpacing=2;verticalAlign=middle;" parent="1" vertex="1">
          <mxGeometry x="219" y="1150" width="150" height="80" as="geometry" />
        </mxCell>
        <mxCell id="3r1CRgV7TEUkl7Pi6vpK-1786" value="Utilisateurs DHCP" style="rounded=1;whiteSpace=wrap;html=1;shadow=0;labelBackgroundColor=none;strokeColor=none;strokeWidth=3;fillColor=#33FF99;fontFamily=Helvetica;fontSize=14;fontColor=#000000;align=center;spacing=5;fontStyle=1;arcSize=7;perimeterSpacing=2;" parent="1" vertex="1">
          <mxGeometry x="219" y="1240" width="150" height="60" as="geometry" />
        </mxCell>
        <mxCell id="3r1CRgV7TEUkl7Pi6vpK-1790" value="Admins du domaine" style="rounded=1;whiteSpace=wrap;html=1;shadow=0;labelBackgroundColor=none;strokeColor=none;strokeWidth=3;fillColor=#33FF99;fontFamily=Helvetica;fontSize=14;fontColor=#000000;align=center;spacing=5;fontStyle=1;arcSize=7;perimeterSpacing=2;" parent="1" vertex="1">
          <mxGeometry x="970" y="1040" width="150" height="60" as="geometry" />
        </mxCell>
        <mxCell id="3r1CRgV7TEUkl7Pi6vpK-1799" value="Protected Users" style="rounded=1;whiteSpace=wrap;html=1;shadow=0;labelBackgroundColor=none;strokeColor=none;strokeWidth=3;fillColor=#33FF99;fontFamily=Helvetica;fontSize=14;fontColor=#000000;align=center;spacing=5;fontStyle=1;arcSize=7;perimeterSpacing=2;" parent="1" vertex="1">
          <mxGeometry x="219" y="1310" width="150" height="60" as="geometry" />
        </mxCell>
        <mxCell id="3r1CRgV7TEUkl7Pi6vpK-1800" value="Utilisateurs du domaine" style="rounded=1;whiteSpace=wrap;html=1;shadow=0;labelBackgroundColor=none;strokeColor=none;strokeWidth=3;fillColor=#33FF99;fontFamily=Helvetica;fontSize=14;fontColor=#000000;align=center;spacing=5;fontStyle=1;arcSize=7;perimeterSpacing=2;" parent="1" vertex="1">
          <mxGeometry x="503" y="910" width="150" height="60" as="geometry" />
        </mxCell>
        <mxCell id="3r1CRgV7TEUkl7Pi6vpK-1802" value="Administrateurs de l&#39;entreprise" style="rounded=1;whiteSpace=wrap;html=1;shadow=0;labelBackgroundColor=none;strokeColor=none;strokeWidth=3;fillColor=#33FF99;fontFamily=Helvetica;fontSize=14;fontColor=#000000;align=center;spacing=5;fontStyle=1;arcSize=7;perimeterSpacing=2;" parent="1" vertex="1">
          <mxGeometry x="499" y="1040" width="150" height="60" as="geometry" />
        </mxCell>
        <mxCell id="3r1CRgV7TEUkl7Pi6vpK-1803" value="Administrateurs du schéma" style="rounded=1;whiteSpace=wrap;html=1;shadow=0;labelBackgroundColor=none;strokeColor=none;strokeWidth=3;fillColor=#33FF99;fontFamily=Helvetica;fontSize=14;fontColor=#000000;align=center;spacing=5;fontStyle=1;arcSize=7;perimeterSpacing=2;" parent="1" vertex="1">
          <mxGeometry x="487.5" y="1290" width="150" height="60" as="geometry" />
        </mxCell>
        <mxCell id="3r1CRgV7TEUkl7Pi6vpK-1804" value="Contrôleurs de domaine d&#39;entreprise en lecture seule" style="rounded=1;whiteSpace=wrap;html=1;shadow=0;labelBackgroundColor=none;strokeColor=none;strokeWidth=3;fillColor=#33FF99;fontFamily=Helvetica;fontSize=14;fontColor=#000000;align=center;spacing=5;fontStyle=1;arcSize=7;perimeterSpacing=2;" parent="1" vertex="1">
          <mxGeometry x="219" y="1380" width="150" height="80" as="geometry" />
        </mxCell>
        <mxCell id="3r1CRgV7TEUkl7Pi6vpK-1805" value="Contrôleurs de domaine" style="rounded=1;whiteSpace=wrap;html=1;shadow=0;labelBackgroundColor=none;strokeColor=none;strokeWidth=3;fillColor=#33FF99;fontFamily=Helvetica;fontSize=14;fontColor=#000000;align=center;spacing=5;fontStyle=1;arcSize=7;perimeterSpacing=2;" parent="1" vertex="1">
          <mxGeometry x="487.5" y="1460" width="150" height="60" as="geometry" />
        </mxCell>
        <mxCell id="3r1CRgV7TEUkl7Pi6vpK-1806" value="Contrôleurs de domaine clonables" style="rounded=1;whiteSpace=wrap;html=1;shadow=0;labelBackgroundColor=none;strokeColor=none;strokeWidth=3;fillColor=#33FF99;fontFamily=Helvetica;fontSize=14;fontColor=#000000;align=center;spacing=5;fontStyle=1;arcSize=7;perimeterSpacing=2;" parent="1" vertex="1">
          <mxGeometry x="219" y="1470" width="150" height="60" as="geometry" />
        </mxCell>
        <mxCell id="3r1CRgV7TEUkl7Pi6vpK-1809" value="" style="endArrow=classic;html=1;rounded=0;exitX=0.5;exitY=0;exitDx=0;exitDy=0;fontSize=18;strokeWidth=3;" parent="1" source="3r1CRgV7TEUkl7Pi6vpK-1782" target="3r1CRgV7TEUkl7Pi6vpK-1784" edge="1">
          <mxGeometry width="50" height="50" relative="1" as="geometry">
            <mxPoint x="109" y="1790" as="sourcePoint" />
            <mxPoint x="159" y="1740" as="targetPoint" />
          </mxGeometry>
        </mxCell>
        <mxCell id="3r1CRgV7TEUkl7Pi6vpK-1810" value="Utilisateurs" style="rounded=1;whiteSpace=wrap;html=1;shadow=0;labelBackgroundColor=none;strokeColor=#6D1F00;strokeWidth=3;fillColor=#a0522d;fontFamily=Helvetica;fontSize=14;align=center;spacing=5;fontStyle=1;arcSize=7;perimeterSpacing=2;fontColor=#ffffff;" parent="1" vertex="1">
          <mxGeometry x="510" y="740" width="150" height="60" as="geometry" />
        </mxCell>
        <mxCell id="3r1CRgV7TEUkl7Pi6vpK-1811" value="" style="endArrow=classic;html=1;rounded=0;fontSize=18;strokeWidth=3;entryX=0.5;entryY=1;entryDx=0;entryDy=0;exitX=0.558;exitY=0.017;exitDx=0;exitDy=0;exitPerimeter=0;" parent="1" source="3r1CRgV7TEUkl7Pi6vpK-1800" target="3r1CRgV7TEUkl7Pi6vpK-1810" edge="1">
          <mxGeometry width="50" height="50" relative="1" as="geometry">
            <mxPoint x="-276" y="1778" as="sourcePoint" />
            <mxPoint x="-211" y="1747.5" as="targetPoint" />
          </mxGeometry>
        </mxCell>
        <mxCell id="3r1CRgV7TEUkl7Pi6vpK-1813" value="" style="endArrow=classic;html=1;rounded=0;exitX=0.25;exitY=0;exitDx=0;exitDy=0;fontSize=18;strokeWidth=3;entryX=1;entryY=1;entryDx=0;entryDy=0;" parent="1" source="3r1CRgV7TEUkl7Pi6vpK-1840" target="3r1CRgV7TEUkl7Pi6vpK-1784" edge="1">
          <mxGeometry width="50" height="50" relative="1" as="geometry">
            <mxPoint x="845.4999999999995" y="1458" as="sourcePoint" />
            <mxPoint x="549" y="1427.5" as="targetPoint" />
          </mxGeometry>
        </mxCell>
        <mxCell id="3r1CRgV7TEUkl7Pi6vpK-1817" value="" style="endArrow=classic;html=1;rounded=0;fontSize=18;strokeWidth=3;entryX=0.053;entryY=1.011;entryDx=0;entryDy=0;entryPerimeter=0;" parent="1" source="3r1CRgV7TEUkl7Pi6vpK-1805" target="3r1CRgV7TEUkl7Pi6vpK-1784" edge="1">
          <mxGeometry width="50" height="50" relative="1" as="geometry">
            <mxPoint x="544" y="1402" as="sourcePoint" />
            <mxPoint x="659" y="1360" as="targetPoint" />
          </mxGeometry>
        </mxCell>
        <mxCell id="3r1CRgV7TEUkl7Pi6vpK-1818" value="Administrateurs" style="rounded=1;whiteSpace=wrap;html=1;shadow=0;labelBackgroundColor=none;strokeColor=#6D1F00;strokeWidth=3;fillColor=#a0522d;fontFamily=Helvetica;fontSize=14;align=center;spacing=5;fontStyle=1;arcSize=7;perimeterSpacing=2;fontColor=#ffffff;" parent="1" vertex="1">
          <mxGeometry x="789" y="740" width="150" height="60" as="geometry" />
        </mxCell>
        <mxCell id="3r1CRgV7TEUkl7Pi6vpK-1819" value="" style="endArrow=classic;html=1;rounded=0;exitX=0.5;exitY=0;exitDx=0;exitDy=0;fontSize=18;strokeWidth=3;entryX=1;entryY=1;entryDx=0;entryDy=0;" parent="1" source="3r1CRgV7TEUkl7Pi6vpK-1790" target="3r1CRgV7TEUkl7Pi6vpK-1818" edge="1">
          <mxGeometry width="50" height="50" relative="1" as="geometry">
            <mxPoint x="897" y="1085" as="sourcePoint" />
            <mxPoint x="739" y="1020" as="targetPoint" />
          </mxGeometry>
        </mxCell>
        <mxCell id="3r1CRgV7TEUkl7Pi6vpK-1820" value="" style="endArrow=classic;html=1;rounded=0;exitX=0;exitY=1;exitDx=0;exitDy=0;fontSize=18;strokeWidth=3;entryX=0.75;entryY=0;entryDx=0;entryDy=0;" parent="1" source="3r1CRgV7TEUkl7Pi6vpK-1790" target="3r1CRgV7TEUkl7Pi6vpK-1784" edge="1">
          <mxGeometry width="50" height="50" relative="1" as="geometry">
            <mxPoint x="917" y="1172" as="sourcePoint" />
            <mxPoint x="751" y="1140" as="targetPoint" />
          </mxGeometry>
        </mxCell>
        <mxCell id="3r1CRgV7TEUkl7Pi6vpK-1821" value="" style="endArrow=classic;html=1;rounded=0;fontSize=18;strokeWidth=3;entryX=0;entryY=0.5;entryDx=0;entryDy=0;" parent="1" source="3r1CRgV7TEUkl7Pi6vpK-1803" target="3r1CRgV7TEUkl7Pi6vpK-1784" edge="1">
          <mxGeometry width="50" height="50" relative="1" as="geometry">
            <mxPoint x="322" y="1462" as="sourcePoint" />
            <mxPoint x="559" y="1340" as="targetPoint" />
          </mxGeometry>
        </mxCell>
        <mxCell id="3r1CRgV7TEUkl7Pi6vpK-1822" value="" style="endArrow=classic;html=1;rounded=0;fontSize=18;strokeWidth=3;exitX=0.75;exitY=0;exitDx=0;exitDy=0;entryX=0;entryY=1;entryDx=0;entryDy=0;" parent="1" source="3r1CRgV7TEUkl7Pi6vpK-1802" target="3r1CRgV7TEUkl7Pi6vpK-1818" edge="1">
          <mxGeometry width="50" height="50" relative="1" as="geometry">
            <mxPoint x="832" y="1038" as="sourcePoint" />
            <mxPoint x="714" y="950" as="targetPoint" />
          </mxGeometry>
        </mxCell>
        <mxCell id="3r1CRgV7TEUkl7Pi6vpK-1823" value="" style="endArrow=classic;html=1;rounded=0;exitX=1;exitY=1;exitDx=0;exitDy=0;fontSize=18;strokeWidth=3;entryX=0.143;entryY=0.024;entryDx=0;entryDy=0;entryPerimeter=0;" parent="1" source="3r1CRgV7TEUkl7Pi6vpK-1802" target="3r1CRgV7TEUkl7Pi6vpK-1784" edge="1">
          <mxGeometry width="50" height="50" relative="1" as="geometry">
            <mxPoint x="825" y="1100" as="sourcePoint" />
            <mxPoint x="649" y="1256" as="targetPoint" />
          </mxGeometry>
        </mxCell>
        <mxCell id="3r1CRgV7TEUkl7Pi6vpK-1824" value="" style="endArrow=classic;html=1;rounded=0;exitX=0.5;exitY=0;exitDx=0;exitDy=0;fontSize=18;strokeWidth=3;entryX=0.25;entryY=1;entryDx=0;entryDy=0;" parent="1" source="3r1CRgV7TEUkl7Pi6vpK-1779" target="3r1CRgV7TEUkl7Pi6vpK-1828" edge="1">
          <mxGeometry width="50" height="50" relative="1" as="geometry">
            <mxPoint x="163" y="1130" as="sourcePoint" />
            <mxPoint x="279" y="964" as="targetPoint" />
          </mxGeometry>
        </mxCell>
        <mxCell id="3r1CRgV7TEUkl7Pi6vpK-1827" value="Invités du domaine" style="rounded=1;whiteSpace=wrap;html=1;shadow=0;labelBackgroundColor=none;strokeColor=none;strokeWidth=3;fillColor=#33FF99;fontFamily=Helvetica;fontSize=14;fontColor=#000000;align=center;spacing=5;fontStyle=1;arcSize=7;perimeterSpacing=2;" parent="1" vertex="1">
          <mxGeometry x="259" y="960" width="150" height="60" as="geometry" />
        </mxCell>
        <mxCell id="3r1CRgV7TEUkl7Pi6vpK-1828" value="Invités" style="rounded=1;whiteSpace=wrap;html=1;shadow=0;labelBackgroundColor=none;strokeColor=#6D1F00;strokeWidth=3;fillColor=#a0522d;fontFamily=Helvetica;fontSize=14;align=center;spacing=5;fontStyle=1;arcSize=7;perimeterSpacing=2;fontColor=#ffffff;" parent="1" vertex="1">
          <mxGeometry x="179" y="740" width="150" height="60" as="geometry" />
        </mxCell>
        <mxCell id="3r1CRgV7TEUkl7Pi6vpK-1829" value="" style="endArrow=classic;html=1;rounded=0;exitX=0.75;exitY=0;exitDx=0;exitDy=0;fontSize=18;strokeWidth=3;entryX=0.75;entryY=1;entryDx=0;entryDy=0;" parent="1" source="3r1CRgV7TEUkl7Pi6vpK-1827" target="3r1CRgV7TEUkl7Pi6vpK-1828" edge="1">
          <mxGeometry width="50" height="50" relative="1" as="geometry">
            <mxPoint x="585" y="925" as="sourcePoint" />
            <mxPoint x="519" y="920" as="targetPoint" />
          </mxGeometry>
        </mxCell>
        <mxCell id="3r1CRgV7TEUkl7Pi6vpK-1832" value="" style="endArrow=classic;html=1;rounded=0;exitX=1;exitY=0.5;exitDx=0;exitDy=0;fontSize=18;strokeWidth=3;entryX=0;entryY=0.5;entryDx=0;entryDy=0;" parent="1" source="3r1CRgV7TEUkl7Pi6vpK-1779" target="3r1CRgV7TEUkl7Pi6vpK-1827" edge="1">
          <mxGeometry width="50" height="50" relative="1" as="geometry">
            <mxPoint x="81" y="1030" as="sourcePoint" />
            <mxPoint x="207" y="1044" as="targetPoint" />
          </mxGeometry>
        </mxCell>
        <mxCell id="3r1CRgV7TEUkl7Pi6vpK-1834" value="" style="endArrow=classic;html=1;rounded=0;fontSize=18;strokeWidth=3;entryX=0.5;entryY=1;entryDx=0;entryDy=0;exitX=0.5;exitY=0;exitDx=0;exitDy=0;" parent="1" source="1755" target="3r1CRgV7TEUkl7Pi6vpK-1818" edge="1">
          <mxGeometry width="50" height="50" relative="1" as="geometry">
            <mxPoint x="621" y="1040" as="sourcePoint" />
            <mxPoint x="579" y="944" as="targetPoint" />
          </mxGeometry>
        </mxCell>
        <mxCell id="3r1CRgV7TEUkl7Pi6vpK-1835" value="" style="endArrow=classic;html=1;rounded=0;fontSize=18;strokeWidth=3;exitX=0;exitY=0.5;exitDx=0;exitDy=0;" parent="1" source="3r1CRgV7TEUkl7Pi6vpK-1839" target="3r1CRgV7TEUkl7Pi6vpK-1784" edge="1">
          <mxGeometry width="50" height="50" relative="1" as="geometry">
            <mxPoint x="996.9999999999995" y="1428.7837837837837" as="sourcePoint" />
            <mxPoint x="729" y="1310" as="targetPoint" />
          </mxGeometry>
        </mxCell>
        <mxCell id="3r1CRgV7TEUkl7Pi6vpK-1784" value="Groupe de réplication dont le mot de passe RODC est refusé" style="rounded=1;whiteSpace=wrap;html=1;shadow=0;labelBackgroundColor=none;strokeColor=none;strokeWidth=3;fillColor=#33FF99;fontFamily=Helvetica;fontSize=14;fontColor=#000000;align=center;spacing=5;fontStyle=1;arcSize=7;perimeterSpacing=2;verticalAlign=middle;" parent="1" vertex="1">
          <mxGeometry x="739.5" y="1241" width="150" height="80" as="geometry" />
        </mxCell>
        <mxCell id="3r1CRgV7TEUkl7Pi6vpK-1836" value="" style="endArrow=classic;html=1;rounded=0;fontSize=18;strokeWidth=3;entryX=1;entryY=0.5;entryDx=0;entryDy=0;exitX=0;exitY=0.5;exitDx=0;exitDy=0;" parent="1" source="1755" target="3r1CRgV7TEUkl7Pi6vpK-1802" edge="1">
          <mxGeometry width="50" height="50" relative="1" as="geometry">
            <mxPoint x="780" y="1070" as="sourcePoint" />
            <mxPoint x="700" y="1070" as="targetPoint" />
          </mxGeometry>
        </mxCell>
        <mxCell id="3r1CRgV7TEUkl7Pi6vpK-1837" value="" style="endArrow=classic;html=1;rounded=0;fontSize=18;strokeWidth=3;entryX=0.25;entryY=0;entryDx=0;entryDy=0;exitX=0.25;exitY=1;exitDx=0;exitDy=0;" parent="1" source="1755" target="3r1CRgV7TEUkl7Pi6vpK-1803" edge="1">
          <mxGeometry width="50" height="50" relative="1" as="geometry">
            <mxPoint x="524" y="1048" as="sourcePoint" />
            <mxPoint x="647" y="952" as="targetPoint" />
          </mxGeometry>
        </mxCell>
        <mxCell id="3r1CRgV7TEUkl7Pi6vpK-1838" value="" style="endArrow=classic;html=1;rounded=0;fontSize=18;strokeWidth=3;entryX=0.045;entryY=-0.031;entryDx=0;entryDy=0;exitX=0.857;exitY=1.016;exitDx=0;exitDy=0;exitPerimeter=0;entryPerimeter=0;" parent="1" source="1755" target="3r1CRgV7TEUkl7Pi6vpK-1839" edge="1">
          <mxGeometry width="50" height="50" relative="1" as="geometry">
            <mxPoint x="904.6219999999998" y="1115.744" as="sourcePoint" />
            <mxPoint x="1001.5" y="1272" as="targetPoint" />
            <Array as="points" />
          </mxGeometry>
        </mxCell>
        <mxCell id="3r1CRgV7TEUkl7Pi6vpK-1839" value="Propriétaires créateurs de la stratégie de groupe" style="rounded=1;whiteSpace=wrap;html=1;shadow=0;labelBackgroundColor=none;strokeColor=none;strokeWidth=3;fillColor=#33FF99;fontFamily=Helvetica;fontSize=14;fontColor=#000000;align=center;spacing=5;fontStyle=1;arcSize=7;perimeterSpacing=2;" parent="1" vertex="1">
          <mxGeometry x="970" y="1300" width="150" height="60" as="geometry" />
        </mxCell>
        <mxCell id="3r1CRgV7TEUkl7Pi6vpK-1840" value="Contrôleurs de domaine en lecture seule" style="rounded=1;whiteSpace=wrap;html=1;shadow=0;labelBackgroundColor=none;strokeColor=none;strokeWidth=3;fillColor=#33FF99;fontFamily=Helvetica;fontSize=14;fontColor=#000000;align=center;spacing=5;fontStyle=1;arcSize=7;perimeterSpacing=2;" parent="1" vertex="1">
          <mxGeometry x="970" y="1450" width="150" height="60" as="geometry" />
        </mxCell>
        <mxCell id="3r1CRgV7TEUkl7Pi6vpK-1842" value="" style="endArrow=classic;html=1;rounded=0;fontSize=18;strokeWidth=3;entryX=1;entryY=0.5;entryDx=0;entryDy=0;exitX=0.117;exitY=-0.016;exitDx=0;exitDy=0;exitPerimeter=0;" parent="1" source="1755" target="3r1CRgV7TEUkl7Pi6vpK-1800" edge="1">
          <mxGeometry width="50" height="50" relative="1" as="geometry">
            <mxPoint x="289" y="1066" as="sourcePoint" />
            <mxPoint x="412" y="970" as="targetPoint" />
          </mxGeometry>
        </mxCell>
        <mxCell id="3r1CRgV7TEUkl7Pi6vpK-1846" value="" style="rounded=0;whiteSpace=wrap;html=1;" parent="1" vertex="1">
          <mxGeometry x="540" y="1610" width="90" height="44" as="geometry" />
        </mxCell>
        <mxCell id="3r1CRgV7TEUkl7Pi6vpK-1845" value="&lt;blockquote style=&quot;margin: 0 0 0 40px; border: none; padding: 0px;&quot;&gt;Users&lt;/blockquote&gt;" style="text;strokeColor=none;fillColor=none;html=1;fontSize=24;fontStyle=1;verticalAlign=middle;align=left;" parent="1" vertex="1">
          <mxGeometry x="510" y="1614" width="120" height="40" as="geometry" />
        </mxCell>
        <mxCell id="3r1CRgV7TEUkl7Pi6vpK-1847" value="" style="rounded=0;whiteSpace=wrap;html=1;" parent="1" vertex="1">
          <mxGeometry x="499" y="40" width="181" height="60" as="geometry" />
        </mxCell>
        <mxCell id="3r1CRgV7TEUkl7Pi6vpK-1848" value="Builtin" style="text;strokeColor=none;fillColor=none;html=1;fontSize=24;fontStyle=1;verticalAlign=middle;align=center;" parent="1" vertex="1">
          <mxGeometry x="544" y="50" width="100" height="40" as="geometry" />
        </mxCell>
        <mxCell id="3r1CRgV7TEUkl7Pi6vpK-1850" value="Accès DCOM service de certificats" style="rounded=1;whiteSpace=wrap;html=1;shadow=0;labelBackgroundColor=none;strokeColor=#6D1F00;strokeWidth=3;fillColor=#a0522d;fontFamily=Helvetica;fontSize=14;align=center;spacing=5;fontStyle=1;arcSize=7;perimeterSpacing=2;fontColor=#ffffff;" parent="1" vertex="1">
          <mxGeometry x="265" y="260" width="150" height="60" as="geometry" />
        </mxCell>
        <mxCell id="3r1CRgV7TEUkl7Pi6vpK-1852" value="Administrateurs Hyper-V" style="rounded=1;whiteSpace=wrap;html=1;shadow=0;labelBackgroundColor=none;strokeColor=#6D1F00;strokeWidth=3;fillColor=#a0522d;fontFamily=Helvetica;fontSize=14;align=center;spacing=5;fontStyle=1;arcSize=7;perimeterSpacing=2;fontColor=#ffffff;" parent="1" vertex="1">
          <mxGeometry x="265" y="330" width="150" height="60" as="geometry" />
        </mxCell>
        <mxCell id="3r1CRgV7TEUkl7Pi6vpK-1853" value="Duplicateurs" style="rounded=1;whiteSpace=wrap;html=1;shadow=0;labelBackgroundColor=none;strokeColor=#6D1F00;strokeWidth=3;fillColor=#a0522d;fontFamily=Helvetica;fontSize=14;align=center;spacing=5;fontStyle=1;arcSize=7;perimeterSpacing=2;fontColor=#ffffff;" parent="1" vertex="1">
          <mxGeometry x="265" y="400" width="150" height="60" as="geometry" />
        </mxCell>
        <mxCell id="3r1CRgV7TEUkl7Pi6vpK-1854" value="Générateurs d&#39;approbation de forêt entrante" style="rounded=1;whiteSpace=wrap;html=1;shadow=0;labelBackgroundColor=none;strokeColor=#6D1F00;strokeWidth=3;fillColor=#a0522d;fontFamily=Helvetica;fontSize=14;align=center;spacing=5;fontStyle=1;arcSize=7;perimeterSpacing=2;fontColor=#ffffff;" parent="1" vertex="1">
          <mxGeometry x="265" y="470" width="150" height="60" as="geometry" />
        </mxCell>
        <mxCell id="3r1CRgV7TEUkl7Pi6vpK-1855" value="Groupe d&#39;accès d&#39;autorisation Windows&amp;nbsp;" style="rounded=1;whiteSpace=wrap;html=1;shadow=0;labelBackgroundColor=none;strokeColor=#6D1F00;strokeWidth=3;fillColor=#a0522d;fontFamily=Helvetica;fontSize=14;align=center;spacing=5;fontStyle=1;arcSize=7;perimeterSpacing=2;fontColor=#ffffff;" parent="1" vertex="1">
          <mxGeometry x="940" y="400" width="150" height="60" as="geometry" />
        </mxCell>
        <mxCell id="3r1CRgV7TEUkl7Pi6vpK-1856" value="IIS_IUSRS" style="rounded=1;whiteSpace=wrap;html=1;shadow=0;labelBackgroundColor=none;strokeColor=#6D1F00;strokeWidth=3;fillColor=#a0522d;fontFamily=Helvetica;fontSize=14;align=center;spacing=5;fontStyle=1;arcSize=7;perimeterSpacing=2;fontColor=#ffffff;" parent="1" vertex="1">
          <mxGeometry x="940" y="470" width="150" height="60" as="geometry" />
        </mxCell>
        <mxCell id="3r1CRgV7TEUkl7Pi6vpK-1857" value="Lecteurs des journaux d&#39;événements" style="rounded=1;whiteSpace=wrap;html=1;shadow=0;labelBackgroundColor=none;strokeColor=#6D1F00;strokeWidth=3;fillColor=#a0522d;fontFamily=Helvetica;fontSize=14;align=center;spacing=5;fontStyle=1;arcSize=7;perimeterSpacing=2;fontColor=#ffffff;" parent="1" vertex="1">
          <mxGeometry x="429" y="260" width="150" height="60" as="geometry" />
        </mxCell>
        <mxCell id="3r1CRgV7TEUkl7Pi6vpK-1858" value="Opérateurs d&#39;assistance de contrôle d&#39;accès" style="rounded=1;whiteSpace=wrap;html=1;shadow=0;labelBackgroundColor=none;strokeColor=#6D1F00;strokeWidth=3;fillColor=#a0522d;fontFamily=Helvetica;fontSize=14;align=center;spacing=5;fontStyle=1;arcSize=7;perimeterSpacing=2;fontColor=#ffffff;" parent="1" vertex="1">
          <mxGeometry x="425" y="330" width="150" height="60" as="geometry" />
        </mxCell>
        <mxCell id="3r1CRgV7TEUkl7Pi6vpK-1859" value="Opérateurs d&#39;impression" style="rounded=1;whiteSpace=wrap;html=1;shadow=0;labelBackgroundColor=none;strokeColor=#6D1F00;strokeWidth=3;fillColor=#a0522d;fontFamily=Helvetica;fontSize=14;align=center;spacing=5;fontStyle=1;arcSize=7;perimeterSpacing=2;fontColor=#ffffff;" parent="1" vertex="1">
          <mxGeometry x="429" y="400" width="150" height="60" as="geometry" />
        </mxCell>
        <mxCell id="3r1CRgV7TEUkl7Pi6vpK-1860" value="Opérateurs de compte" style="rounded=1;whiteSpace=wrap;html=1;shadow=0;labelBackgroundColor=none;strokeColor=#6D1F00;strokeWidth=3;fillColor=#a0522d;fontFamily=Helvetica;fontSize=14;align=center;spacing=5;fontStyle=1;arcSize=7;perimeterSpacing=2;fontColor=#ffffff;" parent="1" vertex="1">
          <mxGeometry x="429" y="470" width="150" height="60" as="geometry" />
        </mxCell>
        <mxCell id="3r1CRgV7TEUkl7Pi6vpK-1861" value="Opérateurs de configuration réseau" style="rounded=1;whiteSpace=wrap;html=1;shadow=0;labelBackgroundColor=none;strokeColor=#6D1F00;strokeWidth=3;fillColor=#a0522d;fontFamily=Helvetica;fontSize=14;align=center;spacing=5;fontStyle=1;arcSize=7;perimeterSpacing=2;fontColor=#ffffff;" parent="1" vertex="1">
          <mxGeometry x="429" y="540" width="150" height="60" as="geometry" />
        </mxCell>
        <mxCell id="3r1CRgV7TEUkl7Pi6vpK-1862" value="Opérateurs de sauvegarde" style="rounded=1;whiteSpace=wrap;html=1;shadow=0;labelBackgroundColor=none;strokeColor=#6D1F00;strokeWidth=3;fillColor=#a0522d;fontFamily=Helvetica;fontSize=14;align=center;spacing=5;fontStyle=1;arcSize=7;perimeterSpacing=2;fontColor=#ffffff;" parent="1" vertex="1">
          <mxGeometry x="589.5" y="190" width="150" height="60" as="geometry" />
        </mxCell>
        <mxCell id="3r1CRgV7TEUkl7Pi6vpK-1863" value="Opérateurs de serveur" style="rounded=1;whiteSpace=wrap;html=1;shadow=0;labelBackgroundColor=none;strokeColor=#6D1F00;strokeWidth=3;fillColor=#a0522d;fontFamily=Helvetica;fontSize=14;align=center;spacing=5;fontStyle=1;arcSize=7;perimeterSpacing=2;fontColor=#ffffff;" parent="1" vertex="1">
          <mxGeometry x="589.5" y="260" width="150" height="60" as="geometry" />
        </mxCell>
        <mxCell id="3r1CRgV7TEUkl7Pi6vpK-1864" value="Serveurs Accès Distant RDS" style="rounded=1;whiteSpace=wrap;html=1;shadow=0;labelBackgroundColor=none;strokeColor=#6D1F00;strokeWidth=3;fillColor=#a0522d;fontFamily=Helvetica;fontSize=14;align=center;spacing=5;fontStyle=1;arcSize=7;perimeterSpacing=2;fontColor=#ffffff;" parent="1" vertex="1">
          <mxGeometry x="589" y="330" width="150" height="60" as="geometry" />
        </mxCell>
        <mxCell id="3r1CRgV7TEUkl7Pi6vpK-1865" value="Serveurs de licence des services Terminal Server" style="rounded=1;whiteSpace=wrap;html=1;shadow=0;labelBackgroundColor=none;strokeColor=#6D1F00;strokeWidth=3;fillColor=#a0522d;fontFamily=Helvetica;fontSize=14;align=center;spacing=5;fontStyle=1;arcSize=7;perimeterSpacing=2;fontColor=#ffffff;" parent="1" vertex="1">
          <mxGeometry x="589" y="400" width="150" height="60" as="geometry" />
        </mxCell>
        <mxCell id="3r1CRgV7TEUkl7Pi6vpK-1866" value="Serveurs Gestion RDS" style="rounded=1;whiteSpace=wrap;html=1;shadow=0;labelBackgroundColor=none;strokeColor=#6D1F00;strokeWidth=3;fillColor=#a0522d;fontFamily=Helvetica;fontSize=14;align=center;spacing=5;fontStyle=1;arcSize=7;perimeterSpacing=2;fontColor=#ffffff;" parent="1" vertex="1">
          <mxGeometry x="589" y="470" width="150" height="60" as="geometry" />
        </mxCell>
        <mxCell id="3r1CRgV7TEUkl7Pi6vpK-1867" value="Serveurs RDS Endpoint" style="rounded=1;whiteSpace=wrap;html=1;shadow=0;labelBackgroundColor=none;strokeColor=#6D1F00;strokeWidth=3;fillColor=#a0522d;fontFamily=Helvetica;fontSize=14;align=center;spacing=5;fontStyle=1;arcSize=7;perimeterSpacing=2;fontColor=#ffffff;" parent="1" vertex="1">
          <mxGeometry x="589" y="540" width="150" height="60" as="geometry" />
        </mxCell>
        <mxCell id="3r1CRgV7TEUkl7Pi6vpK-1868" value="Storage Replica Administrators" style="rounded=1;whiteSpace=wrap;html=1;shadow=0;labelBackgroundColor=none;strokeColor=#6D1F00;strokeWidth=3;fillColor=#a0522d;fontFamily=Helvetica;fontSize=14;align=center;spacing=5;fontStyle=1;arcSize=7;perimeterSpacing=2;fontColor=#ffffff;" parent="1" vertex="1">
          <mxGeometry x="754" y="190" width="150" height="60" as="geometry" />
        </mxCell>
        <mxCell id="3r1CRgV7TEUkl7Pi6vpK-1870" value="Utilisateurs de gestion à distance" style="rounded=1;whiteSpace=wrap;html=1;shadow=0;labelBackgroundColor=none;strokeColor=#6D1F00;strokeWidth=3;fillColor=#a0522d;fontFamily=Helvetica;fontSize=14;align=center;spacing=5;fontStyle=1;arcSize=7;perimeterSpacing=2;fontColor=#ffffff;" parent="1" vertex="1">
          <mxGeometry x="754" y="260" width="150" height="60" as="geometry" />
        </mxCell>
        <mxCell id="3r1CRgV7TEUkl7Pi6vpK-1871" value="Utilisateurs de l&#39;Analyseur de performance" style="rounded=1;whiteSpace=wrap;html=1;shadow=0;labelBackgroundColor=none;strokeColor=#6D1F00;strokeWidth=3;fillColor=#a0522d;fontFamily=Helvetica;fontSize=14;align=center;spacing=5;fontStyle=1;arcSize=7;perimeterSpacing=2;fontColor=#ffffff;" parent="1" vertex="1">
          <mxGeometry x="754" y="330" width="150" height="60" as="geometry" />
        </mxCell>
        <mxCell id="3r1CRgV7TEUkl7Pi6vpK-1872" value="Utilisateurs du Bureau à distance" style="rounded=1;whiteSpace=wrap;html=1;shadow=0;labelBackgroundColor=none;strokeColor=#6D1F00;strokeWidth=3;fillColor=#a0522d;fontFamily=Helvetica;fontSize=14;align=center;spacing=5;fontStyle=1;arcSize=7;perimeterSpacing=2;fontColor=#ffffff;" parent="1" vertex="1">
          <mxGeometry x="429" y="190" width="150" height="60" as="geometry" />
        </mxCell>
        <mxCell id="3r1CRgV7TEUkl7Pi6vpK-1873" value="Utilisateurs du journal de performance" style="rounded=1;whiteSpace=wrap;html=1;shadow=0;labelBackgroundColor=none;strokeColor=#6D1F00;strokeWidth=3;fillColor=#a0522d;fontFamily=Helvetica;fontSize=14;align=center;spacing=5;fontStyle=1;arcSize=7;perimeterSpacing=2;fontColor=#ffffff;" parent="1" vertex="1">
          <mxGeometry x="265" y="540" width="150" height="60" as="geometry" />
        </mxCell>
        <mxCell id="3r1CRgV7TEUkl7Pi6vpK-1874" value="Utilisateurs de modèle COM distribué" style="rounded=1;whiteSpace=wrap;html=1;shadow=0;labelBackgroundColor=none;strokeColor=#6D1F00;strokeWidth=3;fillColor=#a0522d;fontFamily=Helvetica;fontSize=14;align=center;spacing=5;fontStyle=1;arcSize=7;perimeterSpacing=2;fontColor=#ffffff;" parent="1" vertex="1">
          <mxGeometry x="265" y="190" width="150" height="60" as="geometry" />
        </mxCell>
        <mxCell id="3r1CRgV7TEUkl7Pi6vpK-1875" value="ENTREPRISE DOMAINE CONTROLLERS" style="rounded=1;whiteSpace=wrap;html=1;shadow=0;labelBackgroundColor=none;strokeColor=#B20000;strokeWidth=3;fillColor=#e51400;fontFamily=Helvetica;fontSize=14;fontColor=#ffffff;align=center;spacing=5;fontStyle=1;arcSize=7;perimeterSpacing=2;" parent="1" vertex="1">
          <mxGeometry x="1365.5" y="310" width="150" height="60" as="geometry" />
        </mxCell>
        <mxCell id="3r1CRgV7TEUkl7Pi6vpK-1878" value="" style="endArrow=classic;html=1;rounded=0;fontSize=18;strokeWidth=3;entryX=0.019;entryY=0.625;entryDx=0;entryDy=0;exitX=1.006;exitY=0.641;exitDx=0;exitDy=0;entryPerimeter=0;exitPerimeter=0;" parent="1" source="1755" target="3r1CRgV7TEUkl7Pi6vpK-1790" edge="1">
          <mxGeometry width="50" height="50" relative="1" as="geometry">
            <mxPoint x="778" y="1080" as="sourcePoint" />
            <mxPoint x="681" y="1080" as="targetPoint" />
          </mxGeometry>
        </mxCell>
        <mxCell id="3r1CRgV7TEUkl7Pi6vpK-1884" value="" style="endArrow=classic;html=1;rounded=0;exitX=0;exitY=0.5;exitDx=0;exitDy=0;fontSize=18;strokeWidth=3;entryX=1;entryY=0.5;entryDx=0;entryDy=0;dashed=1;strokeColor=#FF0000;" parent="1" source="3r1CRgV7TEUkl7Pi6vpK-1875" target="3r1CRgV7TEUkl7Pi6vpK-1855" edge="1">
          <mxGeometry width="50" height="50" relative="1" as="geometry">
            <mxPoint x="1336" y="360" as="sourcePoint" />
            <mxPoint x="1089" y="430" as="targetPoint" />
          </mxGeometry>
        </mxCell>
        <mxCell id="3r1CRgV7TEUkl7Pi6vpK-1885" value="IUSR" style="rounded=1;whiteSpace=wrap;html=1;shadow=0;labelBackgroundColor=none;strokeColor=#B20000;strokeWidth=3;fillColor=#e51400;fontFamily=Helvetica;fontSize=14;fontColor=#ffffff;align=center;spacing=5;fontStyle=1;arcSize=7;perimeterSpacing=2;" parent="1" vertex="1">
          <mxGeometry x="1365.5" y="430" width="150" height="60" as="geometry" />
        </mxCell>
        <mxCell id="3r1CRgV7TEUkl7Pi6vpK-1889" value="" style="endArrow=classic;html=1;rounded=0;exitX=0;exitY=0.5;exitDx=0;exitDy=0;fontSize=18;strokeWidth=3;entryX=1;entryY=0.5;entryDx=0;entryDy=0;dashed=1;strokeColor=#FF0000;" parent="1" source="3r1CRgV7TEUkl7Pi6vpK-1885" target="3r1CRgV7TEUkl7Pi6vpK-1856" edge="1">
          <mxGeometry width="50" height="50" relative="1" as="geometry">
            <mxPoint x="1336" y="480" as="sourcePoint" />
            <mxPoint x="1089" y="480" as="targetPoint" />
          </mxGeometry>
        </mxCell>
        <mxCell id="3r1CRgV7TEUkl7Pi6vpK-1890" value="Accès compatible pré-Windows 2000" style="rounded=1;whiteSpace=wrap;html=1;shadow=0;labelBackgroundColor=none;strokeColor=#6D1F00;strokeWidth=3;fillColor=#a0522d;fontFamily=Helvetica;fontSize=14;align=center;spacing=5;fontStyle=1;arcSize=7;perimeterSpacing=2;fontColor=#ffffff;" parent="1" vertex="1">
          <mxGeometry x="940" y="540" width="150" height="60" as="geometry" />
        </mxCell>
        <mxCell id="3r1CRgV7TEUkl7Pi6vpK-1891" value="Utilisateurs authentifiés" style="rounded=1;whiteSpace=wrap;html=1;shadow=0;labelBackgroundColor=none;strokeColor=#B20000;strokeWidth=3;fillColor=#e51400;fontFamily=Helvetica;fontSize=14;fontColor=#ffffff;align=center;spacing=5;fontStyle=1;arcSize=7;perimeterSpacing=2;" parent="1" vertex="1">
          <mxGeometry x="1365.5" y="560" width="150" height="60" as="geometry" />
        </mxCell>
        <mxCell id="3r1CRgV7TEUkl7Pi6vpK-1892" value="" style="endArrow=classic;html=1;rounded=0;exitX=0;exitY=0.5;exitDx=0;exitDy=0;fontSize=18;strokeWidth=3;entryX=1;entryY=0.5;entryDx=0;entryDy=0;dashed=1;strokeColor=#FF0000;" parent="1" source="3r1CRgV7TEUkl7Pi6vpK-1891" target="3r1CRgV7TEUkl7Pi6vpK-1890" edge="1">
          <mxGeometry width="50" height="50" relative="1" as="geometry">
            <mxPoint x="1313" y="862" as="sourcePoint" />
            <mxPoint x="1190" y="620" as="targetPoint" />
          </mxGeometry>
        </mxCell>
        <mxCell id="3r1CRgV7TEUkl7Pi6vpK-1893" value="" style="endArrow=classic;html=1;rounded=0;fontSize=18;strokeWidth=3;entryX=1;entryY=0;entryDx=0;entryDy=0;dashed=1;strokeColor=#FF0000;exitX=0;exitY=0.5;exitDx=0;exitDy=0;" parent="1" source="3r1CRgV7TEUkl7Pi6vpK-1891" target="3r1CRgV7TEUkl7Pi6vpK-1810" edge="1">
          <mxGeometry width="50" height="50" relative="1" as="geometry">
            <mxPoint x="1330" y="580" as="sourcePoint" />
            <mxPoint x="1101" y="600" as="targetPoint" />
          </mxGeometry>
        </mxCell>
        <mxCell id="3r1CRgV7TEUkl7Pi6vpK-1894" value="" style="rounded=0;whiteSpace=wrap;html=1;" parent="1" vertex="1">
          <mxGeometry x="1293" y="220" width="310" height="60" as="geometry" />
        </mxCell>
        <mxCell id="3r1CRgV7TEUkl7Pi6vpK-1896" value="" style="rounded=0;whiteSpace=wrap;html=1;fillColor=#f5f5f5;gradientColor=#b3b3b3;strokeColor=#666666;" parent="1" vertex="1">
          <mxGeometry x="1202.38" y="1130" width="500.25" height="490" as="geometry" />
        </mxCell>
        <mxCell id="3r1CRgV7TEUkl7Pi6vpK-1895" value="Utilisateurs AUTORITE NT&amp;nbsp;" style="text;strokeColor=none;fillColor=none;html=1;fontSize=24;fontStyle=1;verticalAlign=middle;align=center;" parent="1" vertex="1">
          <mxGeometry x="1402.5" y="230" width="100" height="40" as="geometry" />
        </mxCell>
        <mxCell id="3r1CRgV7TEUkl7Pi6vpK-1897" value="" style="rounded=0;whiteSpace=wrap;html=1;" parent="1" vertex="1">
          <mxGeometry x="1397.5" y="1130" width="110" height="30" as="geometry" />
        </mxCell>
        <mxCell id="3r1CRgV7TEUkl7Pi6vpK-1898" value="Légende" style="text;strokeColor=none;fillColor=none;html=1;fontSize=24;fontStyle=1;verticalAlign=middle;align=center;" parent="1" vertex="1">
          <mxGeometry x="1402.5" y="1130" width="100" height="30" as="geometry" />
        </mxCell>
        <mxCell id="3r1CRgV7TEUkl7Pi6vpK-1902" value="" style="rounded=1;whiteSpace=wrap;html=1;shadow=0;labelBackgroundColor=none;strokeColor=#6D1F00;strokeWidth=3;fillColor=#a0522d;fontFamily=Helvetica;fontSize=14;align=center;spacing=5;fontStyle=1;arcSize=7;perimeterSpacing=2;fontColor=#ffffff;" parent="1" vertex="1">
          <mxGeometry x="1212.63" y="1190" width="90" height="30" as="geometry" />
        </mxCell>
        <mxCell id="3r1CRgV7TEUkl7Pi6vpK-1903" value="" style="rounded=1;whiteSpace=wrap;html=1;shadow=0;labelBackgroundColor=none;strokeColor=none;strokeWidth=3;fillColor=#33FF99;fontFamily=Helvetica;fontSize=14;fontColor=#000000;align=center;spacing=5;fontStyle=1;arcSize=7;perimeterSpacing=2;" parent="1" vertex="1">
          <mxGeometry x="1212.63" y="1240" width="90" height="30" as="geometry" />
        </mxCell>
        <mxCell id="3r1CRgV7TEUkl7Pi6vpK-1904" value="" style="rounded=1;whiteSpace=wrap;html=1;shadow=0;labelBackgroundColor=none;strokeColor=#006EAF;strokeWidth=3;fillColor=#1ba1e2;fontFamily=Helvetica;fontSize=14;fontColor=#ffffff;align=center;spacing=5;fontStyle=1;arcSize=7;perimeterSpacing=2;" parent="1" vertex="1">
          <mxGeometry x="1212.63" y="1290" width="85.5" height="30" as="geometry" />
        </mxCell>
        <mxCell id="3r1CRgV7TEUkl7Pi6vpK-1905" value="" style="rounded=1;whiteSpace=wrap;html=1;shadow=0;labelBackgroundColor=none;strokeColor=#B20000;strokeWidth=3;fillColor=#e51400;fontFamily=Helvetica;fontSize=14;fontColor=#ffffff;align=center;spacing=5;fontStyle=1;arcSize=7;perimeterSpacing=2;" parent="1" vertex="1">
          <mxGeometry x="1212.63" y="1340" width="90" height="30" as="geometry" />
        </mxCell>
        <mxCell id="3r1CRgV7TEUkl7Pi6vpK-1906" value="" style="endArrow=classic;html=1;rounded=0;fontSize=18;strokeWidth=3;entryX=0.435;entryY=0.614;entryDx=0;entryDy=0;entryPerimeter=0;exitX=0.044;exitY=0.614;exitDx=0;exitDy=0;exitPerimeter=0;" parent="1" edge="1">
          <mxGeometry width="50" height="50" relative="1" as="geometry">
            <mxPoint x="1212.632" y="1409.9999999999998" as="sourcePoint" />
            <mxPoint x="1302.7574999999997" y="1409.9999999999998" as="targetPoint" />
          </mxGeometry>
        </mxCell>
        <mxCell id="3r1CRgV7TEUkl7Pi6vpK-1908" value="" style="endArrow=classic;html=1;rounded=0;fontSize=18;strokeWidth=3;entryX=0.392;entryY=0.682;entryDx=0;entryDy=0;dashed=1;strokeColor=#FF0000;exitX=0.035;exitY=0.653;exitDx=0;exitDy=0;exitPerimeter=0;entryPerimeter=0;" parent="1" source="3r1CRgV7TEUkl7Pi6vpK-1896" edge="1">
          <mxGeometry width="50" height="50" relative="1" as="geometry">
            <mxPoint x="1222.4820000000004" y="1449.8799999999999" as="sourcePoint" />
            <mxPoint x="1302.6260000000002" y="1449.71" as="targetPoint" />
            <Array as="points">
              <mxPoint x="1282.5900000000001" y="1450" />
            </Array>
          </mxGeometry>
        </mxCell>
        <mxCell id="3r1CRgV7TEUkl7Pi6vpK-1911" value="Groupe" style="text;strokeColor=none;fillColor=none;html=1;fontSize=24;fontStyle=1;verticalAlign=middle;align=left;" parent="1" vertex="1">
          <mxGeometry x="1332.63" y="1190" width="100" height="30" as="geometry" />
        </mxCell>
        <mxCell id="3r1CRgV7TEUkl7Pi6vpK-1914" value="Groupe de sécurité" style="text;strokeColor=none;fillColor=none;html=1;fontSize=24;fontStyle=1;verticalAlign=middle;align=left;" parent="1" vertex="1">
          <mxGeometry x="1332.63" y="1240" width="100" height="30" as="geometry" />
        </mxCell>
        <mxCell id="3r1CRgV7TEUkl7Pi6vpK-1915" value="Utilisateur" style="text;strokeColor=none;fillColor=none;html=1;fontSize=24;fontStyle=1;verticalAlign=middle;align=left;" parent="1" vertex="1">
          <mxGeometry x="1332.63" y="1290" width="120" height="30" as="geometry" />
        </mxCell>
        <mxCell id="3r1CRgV7TEUkl7Pi6vpK-1916" value="Utilisateur AUTORITE NT" style="text;strokeColor=none;fillColor=none;html=1;fontSize=24;fontStyle=1;verticalAlign=middle;align=left;" parent="1" vertex="1">
          <mxGeometry x="1332.63" y="1340" width="100" height="30" as="geometry" />
        </mxCell>
        <mxCell id="3r1CRgV7TEUkl7Pi6vpK-1917" value="Membre de" style="text;strokeColor=none;fillColor=none;html=1;fontSize=24;fontStyle=1;verticalAlign=middle;align=left;" parent="1" vertex="1">
          <mxGeometry x="1332.63" y="1390" width="100" height="30" as="geometry" />
        </mxCell>
        <mxCell id="3r1CRgV7TEUkl7Pi6vpK-1918" value="Membre de ( AUTORITE NT )&amp;nbsp;&amp;nbsp;" style="text;strokeColor=none;fillColor=none;html=1;fontSize=24;fontStyle=1;verticalAlign=middle;align=left;" parent="1" vertex="1">
          <mxGeometry x="1332.63" y="1435" width="100" height="30" as="geometry" />
        </mxCell>
        <mxCell id="3r1CRgV7TEUkl7Pi6vpK-1919" value="Serveurs RAS et IAS" style="rounded=1;whiteSpace=wrap;html=1;shadow=0;labelBackgroundColor=none;strokeColor=none;strokeWidth=3;fillColor=#33FF99;fontFamily=Helvetica;fontSize=14;fontColor=#000000;align=center;spacing=5;fontStyle=1;arcSize=7;perimeterSpacing=2;" parent="1" vertex="1">
          <mxGeometry x="49" y="1150" width="150" height="60" as="geometry" />
        </mxCell>
        <mxCell id="3r1CRgV7TEUkl7Pi6vpK-1920" value="WSUS Administrators" style="rounded=1;whiteSpace=wrap;html=1;shadow=0;labelBackgroundColor=none;strokeColor=none;strokeWidth=3;fillColor=#33FF99;fontFamily=Helvetica;fontSize=14;fontColor=#000000;align=center;spacing=5;fontStyle=1;arcSize=7;perimeterSpacing=2;" parent="1" vertex="1">
          <mxGeometry x="49" y="1290" width="150" height="60" as="geometry" />
        </mxCell>
        <mxCell id="3r1CRgV7TEUkl7Pi6vpK-1921" value="WSUS Reporters" style="rounded=1;whiteSpace=wrap;html=1;shadow=0;labelBackgroundColor=none;strokeColor=none;strokeWidth=3;fillColor=#33FF99;fontFamily=Helvetica;fontSize=14;fontColor=#000000;align=center;spacing=5;fontStyle=1;arcSize=7;perimeterSpacing=2;" parent="1" vertex="1">
          <mxGeometry x="49" y="1503.5" width="150" height="60" as="geometry" />
        </mxCell>
        <mxCell id="3r1CRgV7TEUkl7Pi6vpK-1922" value="Administrateurs clés" style="rounded=1;whiteSpace=wrap;html=1;shadow=0;labelBackgroundColor=none;strokeColor=none;strokeWidth=3;fillColor=#33FF99;fontFamily=Helvetica;fontSize=14;fontColor=#000000;align=center;spacing=5;fontStyle=1;arcSize=7;perimeterSpacing=2;" parent="1" vertex="1">
          <mxGeometry x="49" y="1360" width="150" height="60" as="geometry" />
        </mxCell>
        <mxCell id="3r1CRgV7TEUkl7Pi6vpK-1923" value="DnsUpdateProxy" style="rounded=1;whiteSpace=wrap;html=1;shadow=0;labelBackgroundColor=none;strokeColor=none;strokeWidth=3;fillColor=#33FF99;fontFamily=Helvetica;fontSize=14;fontColor=#000000;align=center;spacing=5;fontStyle=1;arcSize=7;perimeterSpacing=2;" parent="1" vertex="1">
          <mxGeometry x="49" y="1220" width="150" height="60" as="geometry" />
        </mxCell>
        <mxCell id="3r1CRgV7TEUkl7Pi6vpK-1924" value="Ordinateurs du domaine" style="rounded=1;whiteSpace=wrap;html=1;shadow=0;labelBackgroundColor=none;strokeColor=none;strokeWidth=3;fillColor=#33FF99;fontFamily=Helvetica;fontSize=14;fontColor=#000000;align=center;spacing=5;fontStyle=1;arcSize=7;perimeterSpacing=2;" parent="1" vertex="1">
          <mxGeometry x="219" y="1545" width="150" height="60" as="geometry" />
        </mxCell>
        <mxCell id="3r1CRgV7TEUkl7Pi6vpK-1925" value="Administrateurs clés Entreprise" style="rounded=1;whiteSpace=wrap;html=1;shadow=0;labelBackgroundColor=none;strokeColor=none;strokeWidth=3;fillColor=#33FF99;fontFamily=Helvetica;fontSize=14;fontColor=#000000;align=center;spacing=5;fontStyle=1;arcSize=7;perimeterSpacing=2;" parent="1" vertex="1">
          <mxGeometry x="49" y="1435" width="150" height="60" as="geometry" />
        </mxCell>
        <mxCell id="3Ljso0-X7fbKzvBMs1a--1755" value="" style="endArrow=classic;html=1;rounded=0;fontSize=18;strokeWidth=3;entryX=0.5;entryY=1;entryDx=0;entryDy=0;exitX=0.877;exitY=0.162;exitDx=0;exitDy=0;exitPerimeter=0;" edge="1" parent="1" source="3Ljso0-X7fbKzvBMs1a--1757" target="3r1CRgV7TEUkl7Pi6vpK-1924">
          <mxGeometry width="50" height="50" relative="1" as="geometry">
            <mxPoint x="300" y="1740" as="sourcePoint" />
            <mxPoint x="338" y="1660" as="targetPoint" />
          </mxGeometry>
        </mxCell>
        <mxCell id="3Ljso0-X7fbKzvBMs1a--1757" value="" style="image;points=[];aspect=fixed;html=1;align=center;shadow=0;dashed=0;image=img/lib/allied_telesis/computer_and_terminals/Personal_Computer.svg;" vertex="1" parent="1">
          <mxGeometry x="259" y="1700" width="45.6" height="61.800000000000004" as="geometry" />
        </mxCell>
        <mxCell id="3Ljso0-X7fbKzvBMs1a--1758" value="" style="image;points=[];aspect=fixed;html=1;align=center;shadow=0;dashed=0;image=img/lib/allied_telesis/computer_and_terminals/Personal_Computer_with_Server.svg;" vertex="1" parent="1">
          <mxGeometry x="680" y="1520" width="62.400000000000006" height="62.400000000000006" as="geometry" />
        </mxCell>
        <mxCell id="3Ljso0-X7fbKzvBMs1a--1759" value="" style="endArrow=classic;html=1;rounded=0;fontSize=18;strokeWidth=3;entryX=0.5;entryY=1;entryDx=0;entryDy=0;" edge="1" parent="1" source="3Ljso0-X7fbKzvBMs1a--1758" target="3r1CRgV7TEUkl7Pi6vpK-1805">
          <mxGeometry width="50" height="50" relative="1" as="geometry">
            <mxPoint x="573" y="1634" as="sourcePoint" />
            <mxPoint x="579" y="1530" as="targetPoint" />
          </mxGeometry>
        </mxCell>
        <mxCell id="3Ljso0-X7fbKzvBMs1a--1760" value="&lt;font style=&quot;font-size: 20px;&quot;&gt;SRV-WIN-01&lt;/font&gt;" style="text;strokeColor=none;fillColor=none;html=1;fontSize=24;fontStyle=1;verticalAlign=middle;align=center;" vertex="1" parent="1">
          <mxGeometry x="670" y="1574" width="100" height="40" as="geometry" />
        </mxCell>
        <mxCell id="3Ljso0-X7fbKzvBMs1a--1761" value="WIN10-001" style="text;strokeColor=none;fillColor=none;html=1;fontSize=24;fontStyle=1;verticalAlign=middle;align=center;" vertex="1" parent="1">
          <mxGeometry x="231.8" y="1761.8" width="100" height="40" as="geometry" />
        </mxCell>
        <mxCell id="3Ljso0-X7fbKzvBMs1a--1762" value="&lt;font style=&quot;font-size: 23px;&quot;&gt;U&lt;/font&gt;" style="text;strokeColor=none;fillColor=none;html=1;fontSize=24;fontStyle=1;verticalAlign=middle;align=center;fontColor=#ff0000;" vertex="1" parent="1">
          <mxGeometry x="352" y="1440" width="17" height="20" as="geometry" />
        </mxCell>
        <mxCell id="3Ljso0-X7fbKzvBMs1a--1763" value="&lt;font style=&quot;font-size: 23px;&quot;&gt;U&lt;/font&gt;" style="text;strokeColor=none;fillColor=none;html=1;fontSize=24;fontStyle=1;verticalAlign=middle;align=center;fontColor=#ff0000;" vertex="1" parent="1">
          <mxGeometry x="182" y="1475" width="17" height="20" as="geometry" />
        </mxCell>
        <mxCell id="3Ljso0-X7fbKzvBMs1a--1764" value="&lt;font style=&quot;font-size: 23px;&quot;&gt;U&lt;/font&gt;" style="text;strokeColor=none;fillColor=none;html=1;fontSize=24;fontStyle=1;verticalAlign=middle;align=center;fontColor=#ff0000;" vertex="1" parent="1">
          <mxGeometry x="630" y="1080" width="17" height="20" as="geometry" />
        </mxCell>
        <mxCell id="3Ljso0-X7fbKzvBMs1a--1765" value="&lt;font style=&quot;font-size: 23px;&quot;&gt;U&lt;/font&gt;" style="text;strokeColor=none;fillColor=none;html=1;fontSize=24;fontStyle=1;verticalAlign=middle;align=center;fontColor=#ff0000;" vertex="1" parent="1">
          <mxGeometry x="620.5" y="1330" width="17" height="20" as="geometry" />
        </mxCell>
        <mxCell id="3Ljso0-X7fbKzvBMs1a--1766" value="&lt;font style=&quot;font-size: 23px;&quot;&gt;L&lt;/font&gt;" style="text;strokeColor=none;fillColor=none;html=1;fontSize=24;fontStyle=1;verticalAlign=middle;align=center;fontColor=#ff0000;" vertex="1" parent="1">
          <mxGeometry x="903" y="1490" width="17" height="20" as="geometry" />
        </mxCell>
        <mxCell id="3Ljso0-X7fbKzvBMs1a--1767" value="&lt;font style=&quot;font-size: 23px;&quot;&gt;G&lt;/font&gt;" style="text;strokeColor=none;fillColor=none;html=1;fontSize=24;fontStyle=1;verticalAlign=middle;align=center;fontColor=#ff0000;" vertex="1" parent="1">
          <mxGeometry x="179" y="1400" width="17" height="20" as="geometry" />
        </mxCell>
        <mxCell id="3Ljso0-X7fbKzvBMs1a--1768" value="&lt;font style=&quot;font-size: 23px;&quot;&gt;G&lt;/font&gt;" style="text;strokeColor=none;fillColor=none;html=1;fontSize=24;fontStyle=1;verticalAlign=middle;align=center;fontColor=#ff0000;" vertex="1" parent="1">
          <mxGeometry x="1103" y="1080" width="17" height="20" as="geometry" />
        </mxCell>
        <mxCell id="3Ljso0-X7fbKzvBMs1a--1769" value="&lt;font style=&quot;font-size: 23px;&quot;&gt;G&lt;/font&gt;" style="text;strokeColor=none;fillColor=none;html=1;fontSize=24;fontStyle=1;verticalAlign=middle;align=center;fontColor=#ff0000;" vertex="1" parent="1">
          <mxGeometry x="620.5" y="1500" width="17" height="20" as="geometry" />
        </mxCell>
        <mxCell id="3Ljso0-X7fbKzvBMs1a--1770" value="&lt;font style=&quot;font-size: 23px;&quot;&gt;G&lt;/font&gt;" style="text;strokeColor=none;fillColor=none;html=1;fontSize=24;fontStyle=1;verticalAlign=middle;align=center;fontColor=#ff0000;" vertex="1" parent="1">
          <mxGeometry x="352" y="1510" width="17" height="20" as="geometry" />
        </mxCell>
        <mxCell id="3Ljso0-X7fbKzvBMs1a--1771" value="&lt;font style=&quot;font-size: 23px;&quot;&gt;G&lt;/font&gt;" style="text;strokeColor=none;fillColor=none;html=1;fontSize=24;fontStyle=1;verticalAlign=middle;align=center;fontColor=#ff0000;" vertex="1" parent="1">
          <mxGeometry x="1103" y="1490" width="17" height="20" as="geometry" />
        </mxCell>
        <mxCell id="3Ljso0-X7fbKzvBMs1a--1772" value="&lt;font style=&quot;font-size: 23px;&quot;&gt;G&lt;/font&gt;" style="text;strokeColor=none;fillColor=none;html=1;fontSize=24;fontStyle=1;verticalAlign=middle;align=center;fontColor=#ff0000;" vertex="1" parent="1">
          <mxGeometry x="182" y="1260" width="17" height="20" as="geometry" />
        </mxCell>
        <mxCell id="3Ljso0-X7fbKzvBMs1a--1773" value="&lt;font style=&quot;font-size: 23px;&quot;&gt;G&lt;/font&gt;" style="text;strokeColor=none;fillColor=none;html=1;fontSize=24;fontStyle=1;verticalAlign=middle;align=center;fontColor=#ff0000;" vertex="1" parent="1">
          <mxGeometry x="392" y="1000" width="17" height="20" as="geometry" />
        </mxCell>
        <mxCell id="3Ljso0-X7fbKzvBMs1a--1774" value="&lt;font style=&quot;font-size: 23px;&quot;&gt;G&lt;/font&gt;" style="text;strokeColor=none;fillColor=none;html=1;fontSize=24;fontStyle=1;verticalAlign=middle;align=center;fontColor=#ff0000;" vertex="1" parent="1">
          <mxGeometry x="352" y="1584" width="17" height="20" as="geometry" />
        </mxCell>
        <mxCell id="3Ljso0-X7fbKzvBMs1a--1775" value="&lt;font style=&quot;font-size: 23px;&quot;&gt;G&lt;/font&gt;" style="text;strokeColor=none;fillColor=none;html=1;fontSize=24;fontStyle=1;verticalAlign=middle;align=center;fontColor=#ff0000;" vertex="1" parent="1">
          <mxGeometry x="1103" y="1301" width="17" height="20" as="geometry" />
        </mxCell>
        <mxCell id="3Ljso0-X7fbKzvBMs1a--1776" value="&lt;font style=&quot;font-size: 23px;&quot;&gt;G&lt;/font&gt;" style="text;strokeColor=none;fillColor=none;html=1;fontSize=24;fontStyle=1;verticalAlign=middle;align=center;fontColor=#ff0000;" vertex="1" parent="1">
          <mxGeometry x="352" y="1350" width="17" height="20" as="geometry" />
        </mxCell>
        <mxCell id="3Ljso0-X7fbKzvBMs1a--1777" value="&lt;font style=&quot;font-size: 23px;&quot;&gt;G&lt;/font&gt;" style="text;strokeColor=none;fillColor=none;html=1;fontSize=24;fontStyle=1;verticalAlign=middle;align=center;fontColor=#ff0000;" vertex="1" parent="1">
          <mxGeometry x="636" y="950" width="17" height="20" as="geometry" />
        </mxCell>
        <mxCell id="3Ljso0-X7fbKzvBMs1a--1778" value="&lt;font style=&quot;font-size: 23px;&quot;&gt;L&lt;/font&gt;" style="text;strokeColor=none;fillColor=none;html=1;fontSize=24;fontStyle=1;verticalAlign=middle;align=center;fontColor=#ff0000;" vertex="1" parent="1">
          <mxGeometry x="352" y="1281" width="17" height="20" as="geometry" />
        </mxCell>
        <mxCell id="3Ljso0-X7fbKzvBMs1a--1779" value="&lt;font style=&quot;font-size: 23px;&quot;&gt;L&lt;/font&gt;" style="text;strokeColor=none;fillColor=none;html=1;fontSize=24;fontStyle=1;verticalAlign=middle;align=center;fontColor=#ff0000;" vertex="1" parent="1">
          <mxGeometry x="352" y="1210" width="17" height="20" as="geometry" />
        </mxCell>
        <mxCell id="3Ljso0-X7fbKzvBMs1a--1780" value="&lt;font style=&quot;font-size: 23px;&quot;&gt;L&lt;/font&gt;" style="text;strokeColor=none;fillColor=none;html=1;fontSize=24;fontStyle=1;verticalAlign=middle;align=center;fontColor=#ff0000;" vertex="1" parent="1">
          <mxGeometry x="182" y="1190" width="17" height="20" as="geometry" />
        </mxCell>
        <mxCell id="3Ljso0-X7fbKzvBMs1a--1781" value="&lt;font style=&quot;font-size: 23px;&quot;&gt;L&lt;/font&gt;" style="text;strokeColor=none;fillColor=none;html=1;fontSize=24;fontStyle=1;verticalAlign=middle;align=center;fontColor=#ff0000;" vertex="1" parent="1">
          <mxGeometry x="352" y="1120" width="17" height="20" as="geometry" />
        </mxCell>
        <mxCell id="3Ljso0-X7fbKzvBMs1a--1782" value="&lt;font style=&quot;font-size: 23px;&quot;&gt;L&lt;/font&gt;" style="text;strokeColor=none;fillColor=none;html=1;fontSize=24;fontStyle=1;verticalAlign=middle;align=center;fontColor=#ff0000;" vertex="1" parent="1">
          <mxGeometry x="179" y="1120" width="17" height="20" as="geometry" />
        </mxCell>
        <mxCell id="3Ljso0-X7fbKzvBMs1a--1783" value="&lt;font style=&quot;font-size: 23px;&quot;&gt;L&lt;/font&gt;" style="text;strokeColor=none;fillColor=none;html=1;fontSize=24;fontStyle=1;verticalAlign=middle;align=center;fontColor=#ff0000;" vertex="1" parent="1">
          <mxGeometry x="179" y="1541.2" width="17" height="20" as="geometry" />
        </mxCell>
        <mxCell id="3Ljso0-X7fbKzvBMs1a--1784" value="&lt;font style=&quot;font-size: 23px;&quot;&gt;L&lt;/font&gt;" style="text;strokeColor=none;fillColor=none;html=1;fontSize=24;fontStyle=1;verticalAlign=middle;align=center;fontColor=#ff0000;" vertex="1" parent="1">
          <mxGeometry x="179" y="1330" width="17" height="20" as="geometry" />
        </mxCell>
        <mxCell id="3Ljso0-X7fbKzvBMs1a--1785" value="&lt;font style=&quot;font-size: 23px;&quot;&gt;L&lt;/font&gt;" style="text;strokeColor=none;fillColor=none;html=1;fontSize=24;fontStyle=1;verticalAlign=middle;align=center;fontColor=#ff0000;" vertex="1" parent="1">
          <mxGeometry x="872.5" y="1301" width="17" height="20" as="geometry" />
        </mxCell>
        <mxCell id="3Ljso0-X7fbKzvBMs1a--1786" value="&lt;font style=&quot;font-size: 25px;&quot;&gt;U&lt;/font&gt;" style="text;strokeColor=none;fillColor=none;html=1;fontSize=24;fontStyle=1;verticalAlign=middle;align=center;fontColor=#ff0000;" vertex="1" parent="1">
          <mxGeometry x="1249.13" y="1485" width="17" height="20" as="geometry" />
        </mxCell>
        <mxCell id="3Ljso0-X7fbKzvBMs1a--1787" value="Domaine Universel" style="text;strokeColor=none;fillColor=none;html=1;fontSize=24;fontStyle=1;verticalAlign=middle;align=left;" vertex="1" parent="1">
          <mxGeometry x="1332.63" y="1480" width="100" height="30" as="geometry" />
        </mxCell>
        <mxCell id="3Ljso0-X7fbKzvBMs1a--1790" value="&lt;font style=&quot;font-size: 25px;&quot;&gt;G&lt;/font&gt;" style="text;strokeColor=none;fillColor=none;html=1;fontSize=24;fontStyle=1;verticalAlign=middle;align=center;fontColor=#ff0000;" vertex="1" parent="1">
          <mxGeometry x="1249.13" y="1525" width="17" height="20" as="geometry" />
        </mxCell>
        <mxCell id="3Ljso0-X7fbKzvBMs1a--1791" value="Domaine Global" style="text;strokeColor=none;fillColor=none;html=1;fontSize=24;fontStyle=1;verticalAlign=middle;align=left;" vertex="1" parent="1">
          <mxGeometry x="1332.63" y="1520" width="100" height="30" as="geometry" />
        </mxCell>
        <mxCell id="3Ljso0-X7fbKzvBMs1a--1792" value="&lt;font style=&quot;font-size: 25px;&quot;&gt;L&lt;/font&gt;" style="text;strokeColor=none;fillColor=none;html=1;fontSize=24;fontStyle=1;verticalAlign=middle;align=center;fontColor=#ff0000;" vertex="1" parent="1">
          <mxGeometry x="1249.13" y="1568.5" width="17" height="20" as="geometry" />
        </mxCell>
        <mxCell id="3Ljso0-X7fbKzvBMs1a--1793" value="Domaine Local" style="text;strokeColor=none;fillColor=none;html=1;fontSize=24;fontStyle=1;verticalAlign=middle;align=left;" vertex="1" parent="1">
          <mxGeometry x="1332.63" y="1563.5" width="100" height="30" as="geometry" />
        </mxCell>
      </root>
    </mxGraphModel>
  </diagram>
</mxfile>
